<svg width="29" height="30" viewBox="0 0 29 30" fill="none" xmlns="http://www.w3.org/2000/svg">
<path fill-rule="evenodd" clip-rule="evenodd" d="M18.9168 5.39996C19.5853 5.39999 20.2405 5.58612 20.8092 5.93753C21.3778 6.28893 21.8374 6.79171 22.1364 7.38956L23.7996 10.7148C24.0924 10.5948 24.3804 10.4652 24.6636 10.326C24.9485 10.1837 25.2782 10.1604 25.5802 10.2612C25.8822 10.3621 26.1318 10.5787 26.274 10.8636C26.4163 11.1484 26.4396 11.4781 26.3387 11.7801C26.2379 12.0821 26.0213 12.3317 25.7364 12.474C25.448 12.6023 25.158 12.7271 24.8664 12.8484L26.0196 15.156C26.2699 15.6563 26.4002 16.2081 26.4 16.7676V19.8C26.4 20.3065 26.2931 20.8073 26.0863 21.2696C25.8796 21.732 25.5775 22.1455 25.2 22.4832V24C25.2 24.4774 25.0104 24.9352 24.6728 25.2728C24.3353 25.6103 23.8774 25.8 23.4 25.8C22.9226 25.8 22.4648 25.6103 22.1272 25.2728C21.7897 24.9352 21.6 24.4774 21.6 24V23.4H7.20002V24C7.20002 24.4774 7.01038 24.9352 6.67282 25.2728C6.33525 25.6103 5.87741 25.8 5.40002 25.8C4.92263 25.8 4.4648 25.6103 4.12723 25.2728C3.78967 24.9352 3.60002 24.4774 3.60002 24V22.4832C2.86322 21.8232 2.40002 20.8656 2.40002 19.8V16.7664C2.40025 16.2077 2.53048 15.6568 2.78042 15.1572L3.92402 12.8676C3.63442 12.746 3.34842 12.6152 3.06602 12.4752C2.78262 12.3311 2.5672 12.0813 2.46618 11.7799C2.36517 11.4784 2.38666 11.1493 2.52602 10.8636C2.59641 10.7225 2.69392 10.5966 2.81296 10.4933C2.93201 10.3899 3.07026 10.311 3.21982 10.261C3.36938 10.2111 3.52731 10.1912 3.68458 10.2023C3.84186 10.2134 3.9954 10.2555 4.13642 10.326C4.42042 10.466 4.70842 10.5956 5.00042 10.7148L6.66362 7.39076C6.96248 6.79269 7.42199 6.28966 7.99064 5.93804C8.5593 5.58641 9.21464 5.4001 9.88322 5.39996H18.9168ZM9.00002 16.2C8.52263 16.2 8.0648 16.3896 7.72723 16.7272C7.38967 17.0647 7.20002 17.5226 7.20002 18C7.20002 18.4774 7.38967 18.9352 7.72723 19.2728C8.0648 19.6103 8.52263 19.8 9.00002 19.8C9.47741 19.8 9.93525 19.6103 10.2728 19.2728C10.6104 18.9352 10.8 18.4774 10.8 18C10.8 17.5226 10.6104 17.0647 10.2728 16.7272C9.93525 16.3896 9.47741 16.2 9.00002 16.2ZM19.8 16.2C19.3226 16.2 18.8648 16.3896 18.5272 16.7272C18.1897 17.0647 18 17.5226 18 18C18 18.4774 18.1897 18.9352 18.5272 19.2728C18.8648 19.6103 19.3226 19.8 19.8 19.8C20.2774 19.8 20.7353 19.6103 21.0728 19.2728C21.4104 18.9352 21.6 18.4774 21.6 18C21.6 17.5226 21.4104 17.0647 21.0728 16.7272C20.7353 16.3896 20.2774 16.2 19.8 16.2ZM18.9168 7.79996H9.88322C9.68571 7.79993 9.49125 7.84866 9.31709 7.94181C9.14292 8.03496 8.99444 8.16966 8.88482 8.33396L8.81042 8.46356L7.28642 11.5092C9.14402 12.066 11.6472 12.6 14.4 12.6C16.9704 12.6 19.3212 12.1344 21.132 11.6196L21.5124 11.5092L19.9896 8.46356C19.9013 8.28694 19.7708 8.13484 19.6096 8.02076C19.4484 7.90668 19.2616 7.83413 19.0656 7.80956L18.918 7.79996H18.9168Z" fill="#EBC03F"/>
</svg>
